<svg width="41" height="40" viewBox="0 0 41 40" fill="none" xmlns="http://www.w3.org/2000/svg">
<g id="add-ft.svg">
<g id="Group 2085663036">
<path id="Vector" d="M20.7 4C14.508 4 9.5 9.008 9.5 15.2C9.5 23.6 20.7 36 20.7 36C20.7 36 31.9 23.6 31.9 15.2C31.9 9.008 26.892 4 20.7 4ZM12.7 15.2C12.7 10.784 16.284 7.2 20.7 7.2C25.116 7.2 28.7 10.784 28.7 15.2C28.7 19.808 24.092 26.704 20.7 31.008C17.372 26.736 12.7 19.76 12.7 15.2Z" fill="#8CC63E"/>
<path id="Vector_2" d="M20.7 16.8004C22.4673 16.8004 23.9 15.3677 23.9 13.6004C23.9 11.8331 22.4673 10.4004 20.7 10.4004C18.9327 10.4004 17.5 11.8331 17.5 13.6004C17.5 15.3677 18.9327 16.8004 20.7 16.8004Z" fill="#8CC63E"/>
</g>
</g>
</svg>
