<svg width="41" height="40" viewBox="0 0 41 40" fill="none" xmlns="http://www.w3.org/2000/svg">
<g id="ph-ft.svg">
<path id="Vector" d="M12.7378 10.0446C12.8231 11.3104 13.0365 12.5478 13.3778 13.7282L11.6711 15.4349C11.088 13.7282 10.7182 11.922 10.5902 10.0446H12.7378ZM26.7609 27.1398C27.9697 27.481 29.2071 27.6944 30.4587 27.7798V29.8988C28.5813 29.7708 26.7751 29.401 25.0543 28.8322L26.7609 27.1398ZM14.1031 7.2002H9.12535C8.34312 7.2002 7.70312 7.8402 7.70312 8.62242C7.70312 21.977 18.5262 32.8002 31.8809 32.8002C32.6631 32.8002 33.3031 32.1602 33.3031 31.378V26.4144C33.3031 25.6322 32.6631 24.9922 31.8809 24.9922C30.1173 24.9922 28.3965 24.7078 26.8035 24.1816C26.6624 24.1304 26.5129 24.1062 26.3627 24.1104C25.9929 24.1104 25.6373 24.2526 25.3529 24.5228L22.224 27.6518C18.1926 25.5901 14.9132 22.3107 12.8516 18.2793L15.9805 15.1504C16.3787 14.7522 16.4925 14.1975 16.336 13.6998C15.7965 12.0614 15.5228 10.3473 15.5253 8.62242C15.5253 7.8402 14.8853 7.2002 14.1031 7.2002Z" fill="#8CC63E"/>
</g>
</svg>
